<?xml version="1.0" encoding="UTF-8"?>
<svg version="1.1" xmlns="http://www.w3.org/2000/svg" width="980" height="980">
<path d="M0 0 C323.4 0 646.8 0 980 0 C980 323.4 980 646.8 980 980 C656.6 980 333.2 980 0 980 C0 656.6 0 333.2 0 0 Z " fill="#000000" transform="translate(0,0)"/>
<path d="M0 0 C123.60661879 0 123.60661879 0 154 30 C164.36203186 41.07527561 171.499075 53.89042417 176.375 68.1875 C176.61387939 68.88713867 176.85275879 69.58677734 177.09887695 70.30761719 C180.70098645 81.57675743 181.40622448 92.85475704 181.375 104.625 C181.37518127 105.67898987 181.37518127 105.67898987 181.37536621 106.75427246 C181.34798983 117.95248394 180.34147063 128.27514237 177 139 C176.67644531 140.14210938 176.35289062 141.28421875 176.01953125 142.4609375 C174.393151 147.83794974 172.42802035 152.45364436 169.26171875 157.09375 C167.95734624 159.06444283 166.93438597 161.07637705 165.875 163.1875 C161.25774931 171.64265651 154.0446847 179.48607921 147 186 C146.34 186 145.68 186 145 186 C145 186.66 145 187.32 145 188 C142.96733809 189.52373457 140.95699937 190.89915849 138.8125 192.25 C138.17900635 192.65114014 137.5455127 193.05228027 136.89282227 193.46557617 C95.37809819 219.22318821 48.877476 209 0 209 C0 140.03 0 71.06 0 0 Z " fill="#FCFCFC" transform="translate(679,399)"/>
<path d="M0 0 C2.48972979 0.83565325 4.98584249 1.64822708 7.48535156 2.45410156 C14.96418308 4.8788369 22.2824102 7.45098522 29.50097656 10.58300781 C32.38949724 11.78965205 35.30681822 12.87103461 38.25244141 13.92919922 C46.55841387 16.92874403 54.32649255 20.57752166 62.16113281 24.63525391 C64.86899813 26.02086726 67.59338392 27.37009527 70.32128906 28.71582031 C81.92410616 34.44318789 93.39274929 40.2795311 104.54003906 46.85253906 C105.94189453 47.67842529 105.94189453 47.67842529 107.37207031 48.52099609 C120.61558957 56.34841573 133.72019173 64.3478349 146.54003906 72.85253906 C147.11028809 73.22991211 147.68053711 73.60728516 148.26806641 73.99609375 C151.70026491 76.26940745 155.12161036 78.55859348 158.54003906 80.85253906 C160.28965444 82.01978246 162.03962101 83.18649971 163.79003906 84.35253906 C165.04003906 85.1858724 166.29003906 86.01920573 167.54003906 86.85253906 C167.21003906 87.51253906 166.88003906 88.17253906 166.54003906 88.85253906 C165.53328125 88.19769531 164.52652344 87.54285156 163.48925781 86.86816406 C141.94717141 72.87696557 120.45954039 58.93371322 97.31103516 47.71386719 C94.66778821 46.42831781 92.04190243 45.10867589 89.41503906 43.79003906 C88.46113281 43.31566406 87.50722656 42.84128906 86.52441406 42.35253906 C84.4015395 41.28554452 82.28783186 40.20022647 80.18066406 39.10253906 C73.28549799 35.54769789 66.4443148 32.55824129 59.08691406 30.09082031 C56.3817798 29.1464067 53.76496247 28.13911213 51.11816406 27.05175781 C44.02896942 24.19138125 36.78748279 21.77481495 29.54003906 19.35253906 C28.81003693 19.10786896 28.08003479 18.86319885 27.32791138 18.6111145 C16.48784366 14.992902 5.77483674 12.01070547 -5.45996094 9.85253906 C-7.17505859 9.37494141 -7.17505859 9.37494141 -8.92480469 8.88769531 C-21.04541839 5.84403885 -33.59377147 5.47943667 -46.0234375 5.48193359 C-48.45871053 5.47754132 -50.89219065 5.44098438 -53.32714844 5.40332031 C-72.88228139 5.26248774 -91.55910537 9.96918535 -105.98339844 23.98925781 C-116.88089329 36.58841196 -120.16441141 50.41536143 -119.45996094 66.85253906 C-119.440625 67.96371094 -119.42128906 69.07488281 -119.40136719 70.21972656 C-119.07383802 78.8148858 -117.10118404 86.48728041 -114.67089844 94.67285156 C-113.2841784 99.3522402 -112.31243715 104.04767312 -111.45996094 108.85253906 C-110.79996094 108.85253906 -110.13996094 108.85253906 -109.45996094 108.85253906 C-108.99847656 109.93148437 -108.53699219 111.01042969 -108.06152344 112.12207031 C-101.929896 126.28499626 -95.5869482 140.85436901 -86.34277344 153.30175781 C-84.86723449 155.30077634 -83.46096688 157.31049657 -82.07714844 159.37207031 C-68.60029962 179.43419753 -53.26648899 197.82011436 -36.70605469 215.38769531 C-34.03181419 218.22864171 -31.42052172 221.11784107 -28.83496094 224.04003906 C-21.88098089 231.80984918 -14.51710948 239.26081949 -6.57324219 246.02050781 C-4.40341413 247.90156024 -2.29508668 249.84197262 -0.19067383 251.7956543 C4.96055959 256.57527524 10.22332102 261.13572942 15.70019531 265.54394531 C18.25831689 267.6235187 20.77164988 269.74319915 23.27539062 271.88720703 C35.14628079 282.04357018 47.68604715 291.21493668 60.38134766 300.30371094 C62.36222526 301.72496037 64.33705929 303.15408712 66.30957031 304.58691406 C79.64941426 314.25132518 93.60723566 322.81727089 107.77148438 331.20947266 C109.64809082 332.32319059 111.52237393 333.44083095 113.39453125 334.56201172 C134.71609912 347.32713239 156.54283188 358.43220811 179.54003906 367.85253906 C180.40145508 368.20832031 181.26287109 368.56410156 182.15039062 368.93066406 C198.64959413 375.7298879 215.29662816 381.26372087 232.54003906 385.85253906 C233.22211426 386.03703613 233.90418945 386.2215332 234.60693359 386.41162109 C251.05810036 390.84279007 267.04927449 393.38517271 284.10888672 393.29858398 C286.67137788 393.29001787 289.23166863 393.31908854 291.79394531 393.35058594 C311.56242783 393.43387578 331.70593509 388.88451154 346.54003906 374.97753906 C356.50352069 364.32692077 359.69449108 350.90041605 361.54003906 336.85253906 C361.87003906 336.85253906 362.20003906 336.85253906 362.54003906 336.85253906 C363.19616507 358.898373 362.73181186 380.22594682 347.13378906 397.52050781 C344.35544074 400.01851075 341.48674138 402.26343571 338.47753906 404.47753906 C337.4553125 405.23292969 336.43308594 405.98832031 335.37988281 406.76660156 C333.97416016 407.79914063 333.97416016 407.79914063 332.54003906 408.85253906 C331.90453125 409.37589844 331.26902344 409.89925781 330.61425781 410.43847656 C320.25464478 417.50096228 306.67639681 419.27689605 294.54003906 420.85253906 C293.26644531 421.03558594 291.99285156 421.21863281 290.68066406 421.40722656 C258.60458604 425.30296353 226.05642816 416.91752537 195.54003906 407.85253906 C194.65541992 407.5934375 193.77080078 407.33433594 192.859375 407.06738281 C191.98571289 406.80957031 191.11205078 406.55175781 190.21191406 406.28613281 C189.03773926 405.94086548 189.03773926 405.94086548 187.83984375 405.58862305 C184.58698181 404.54750004 181.45694679 403.25288715 178.30175781 401.95019531 C175.09865886 400.67711072 171.85792971 399.5475032 168.60253906 398.41503906 C163.41449909 396.58330913 158.46936474 394.50141222 153.49707031 392.15722656 C150.6651181 390.90772585 147.80169184 389.82294838 144.89013672 388.77441406 C135.72632802 385.47166585 127.14416558 381.3979004 118.54003906 376.85253906 C117.47543457 376.2929248 116.41083008 375.73331055 115.31396484 375.15673828 C112.27263723 373.55646608 109.23557767 371.94830167 106.2010498 370.33517456 C104.41020486 369.38319318 102.61820706 368.43338152 100.82617188 367.48364258 C93.93816579 363.79475213 87.25745808 359.87944312 80.63208008 355.73876953 C77.7906861 354.00544069 74.92070161 352.3964116 71.98535156 350.82910156 C65.93963413 347.5841508 60.18083233 343.94253326 54.41503906 340.22753906 C53.32626465 339.52822266 52.23749023 338.82890625 51.11572266 338.10839844 C42.07501579 332.26708024 33.25048307 326.1726523 24.54003906 319.85253906 C23.54230469 319.13839844 22.54457031 318.42425781 21.51660156 317.68847656 C11.76263982 310.67344963 2.27351588 303.30431332 -7.08105469 295.76660156 C-8.65051197 294.50381984 -10.22594198 293.2484209 -11.80761719 292.00097656 C-22.67340472 283.41435422 -33.07840981 274.35637521 -43.13452148 264.83642578 C-46.1382357 261.99607952 -49.17304051 259.22017343 -52.30761719 256.52441406 C-57.09113422 252.36596327 -61.55296758 247.90593462 -66.02246094 243.41503906 C-66.83392578 242.60744141 -67.64539063 241.79984375 -68.48144531 240.96777344 C-74.15696361 235.28309369 -79.60041662 229.46902158 -84.58496094 223.16503906 C-86.4338283 220.80290252 -86.4338283 220.80290252 -88.64746094 218.66503906 C-118.6319965 188.6805035 -144.04938254 149.89323014 -160.45996094 110.85253906 C-160.77320313 110.15 -161.08644531 109.44746094 -161.40917969 108.72363281 C-164.69089929 101.0576396 -166.80507963 93.06256624 -168.89160156 85.00683594 C-169.37867914 83.1606278 -169.90741932 81.32549853 -170.44433594 79.49316406 C-175.64634002 59.76480897 -174.14748119 37.30911617 -164.60058594 19.27832031 C-156.04572207 4.91605123 -142.0581524 -4.79039253 -126.45996094 -10.14746094 C-125.43056396 -10.51363525 -125.43056396 -10.51363525 -124.38037109 -10.88720703 C-85.35605637 -24.13399276 -37.5284258 -12.65082527 0 0 Z " fill="#FAFAFA" transform="translate(313.4599609375,285.1474609375)"/>
<path d="M0 0 C8.58 0 17.16 0 26 0 C30.25597335 8.36767641 34.34256169 16.6106836 37.84765625 25.3203125 C39.2659267 28.61839225 40.95529908 31.68659342 42.7890625 34.76953125 C44.08468077 37.15597651 45.12320337 39.61354057 46.18457031 42.11073303 C47.42028662 44.97376101 48.74733813 47.79152661 50.07421875 50.61328125 C50.66095538 51.86406376 51.24762271 53.11487878 51.83422852 54.36572266 C52.13676544 55.00987122 52.43930237 55.65401978 52.75100708 56.31768799 C57.24234843 65.88463876 61.7045493 75.45910314 65.9453125 85.14038086 C69.60744103 93.45872737 73.48291912 101.68024554 77.34594727 109.90673828 C80.35331611 116.33912791 83.21833166 122.7971233 85.87182617 129.3840332 C87.28363865 132.65769057 88.96838367 135.70859134 90.7890625 138.76953125 C92.07815838 141.1439627 93.11063515 143.58817694 94.16668701 146.07273865 C95.49929088 149.154745 96.9313283 152.18988082 98.36328125 155.2265625 C98.67774704 155.89609955 98.99221283 156.5656366 99.31620789 157.25546265 C100.3138657 159.37916385 101.31308648 161.50212455 102.3125 163.625 C119 199.10495196 119 199.10495196 119 209 C101.51 209 84.02 209 66 209 C63.36 203.06 60.72 197.12 58 191 C57.01 189.02 56.02 187.04 55 185 C55 184.34 55 183.68 55 183 C27.61 183 0.22 183 -28 183 C-28.66 184.98 -29.32 186.96 -30 189 C-32.97 195.6 -35.94 202.2 -39 209 C-56.49 209 -73.98 209 -92 209 C-92 198.87408949 -92 198.87408949 -89.18359375 193.05078125 C-88.88945084 192.43083786 -88.59530792 191.81089447 -88.29225159 191.17216492 C-87.356748 189.2107225 -86.39776303 187.26191893 -85.4375 185.3125 C-84.82069359 184.02744608 -84.20544885 182.74164137 -83.59179688 181.45507812 C-80.8626245 175.75879881 -78.05698488 170.10272142 -75.20939636 164.46484375 C-72.1137132 158.33000569 -69.25379887 152.15970304 -66.625 145.8125 C-63.42453768 138.21303418 -60.02957721 130.74434766 -56.45019531 123.31689453 C-53.42984135 117.0076816 -50.63400711 110.61473842 -47.875 104.1875 C-44.19371994 95.62695682 -40.29038264 87.27506234 -36 79 C-32.71049532 72.58744751 -29.59344493 66.22509184 -26.99609375 59.5 C-25.56966459 55.9199425 -23.95907238 52.43163986 -22.34375 48.93359375 C-21.24740583 46.54012146 -20.17594592 44.1389311 -19.11328125 41.73046875 C-17.04813925 37.07446827 -14.88036002 32.47194123 -12.6875 27.875 C-11.89944649 26.21628505 -11.11169012 24.5574289 -10.32421875 22.8984375 C-9.93540527 22.07956055 -9.5465918 21.26068359 -9.14599609 20.41699219 C-7.42242048 16.78184124 -5.70736099 13.14279246 -4 9.5 C-3.443125 8.3140625 -2.88625 7.128125 -2.3125 5.90625 C-0.9511434 3.02387146 -0.9511434 3.02387146 0 0 Z " fill="#FCFCFC" transform="translate(548,399)"/>
<path d="M0 0 C16.56726106 -2.16363537 16.56726106 -2.16363537 22.34033203 1.47509766 C26.87708647 5.43439114 30.59937066 10.08068858 34.28369141 14.82470703 C36.61650694 17.78137651 39.15442567 20.45862941 41.75 23.1875 C46.09045897 27.93670175 50.27598666 32.80261719 54.43920898 37.70629883 C58.46012729 42.42202973 62.62392929 46.98794134 66.84692383 51.52270508 C70.03276317 54.94441552 73.14879704 58.41069978 76.19921875 61.953125 C79.40686639 65.59912796 82.74297514 69.13182735 86.05859375 72.6796875 C88 75 88 75 88 77 C89.485 77.495 89.485 77.495 91 78 C92.75390625 79.70703125 92.75390625 79.70703125 94.5625 81.8125 C95.16191406 82.49957031 95.76132812 83.18664062 96.37890625 83.89453125 C97.89648749 85.86555845 98.97902958 87.73964261 100 90 C104.06887908 86.8242895 107.40876396 83.4932816 110.75 79.5703125 C113.75429491 76.13832283 116.87735035 72.82413723 120 69.5 C125.33345148 63.82563119 125.33345148 63.82563119 130.5 58 C133.83112047 54.12915369 137.32201812 50.41399967 140.8125 46.6875 C145.14526121 42.05989911 149.47051937 37.42699407 153.75 32.75 C154.52859375 31.89921875 155.3071875 31.0484375 156.109375 30.171875 C158.12834686 27.94606359 158.12834686 27.94606359 160 25 C160.66 25 161.32 25 162 25 C162.25394531 24.41734375 162.50789062 23.8346875 162.76953125 23.234375 C164.13320333 20.75811967 165.64225203 19.19479374 167.6875 17.25 C171.10267356 13.9277985 174.27195311 10.48634635 177.359375 6.859375 C179.15307514 4.82651484 181.08298661 2.91701339 183 1 C189.6 1 196.2 1 203 1 C203 69.64 203 138.28 203 209 C188.37283115 209 188.37283115 209 183.71875 206.03515625 C182.69797363 205.40375732 181.67719727 204.7723584 180.62548828 204.12182617 C179.59407715 203.44224854 178.56266602 202.7626709 177.5 202.0625 C176.4157373 201.37969971 175.33147461 200.69689941 174.21435547 199.9934082 C171.11882066 198.02983656 168.05407263 196.02731751 165 194 C164.22301758 193.48469727 163.44603516 192.96939453 162.64550781 192.43847656 C159.0447256 190.0282062 155.5084828 187.54334653 152 185 C151.01 184.34 150.02 183.68 149 183 C148.63923645 180.25387573 148.63923645 180.25387573 148.65942383 176.71435547 C148.65898575 176.07032776 148.65854767 175.42630005 148.65809631 174.76275635 C148.66018906 172.63059336 148.68354135 170.49921338 148.70703125 168.3671875 C148.71262552 166.89031402 148.71689641 165.41343498 148.71989441 163.93655396 C148.73135665 160.04673937 148.76083527 156.1572601 148.79400635 152.26757812 C148.82467778 148.29952531 148.83839345 144.3314184 148.85351562 140.36328125 C148.88570401 132.57536786 148.93691655 124.78773089 149 117 C148.34 117 147.68 117 147 117 C146.74565186 117.58104492 146.49130371 118.16208984 146.22924805 118.76074219 C144.86726505 121.24179642 143.3568556 122.85518103 141.33203125 124.828125 C140.60306641 125.54613281 139.87410156 126.26414062 139.12304688 127.00390625 C138.36056641 127.74511719 137.59808594 128.48632812 136.8125 129.25 C131.85006785 134.09622602 127.05047533 138.97816958 122.52954102 144.24121094 C120.63132129 146.42393638 118.62550823 148.4731849 116.5625 150.5 C115.54349609 151.50546875 115.54349609 151.50546875 114.50390625 152.53125 C114.00761719 153.0159375 113.51132812 153.500625 113 154 C109.29956407 152.68631273 106.59153082 151.11331995 103.5625 148.625 C102.70140625 147.91859375 101.8403125 147.2121875 100.953125 146.484375 C95.84627575 142.18813675 90.76799295 137.85909048 85.72900391 133.48339844 C84.50305924 132.43159954 83.26434979 131.39459665 82.01708984 130.36816406 C81.37594238 129.83674805 80.73479492 129.30533203 80.07421875 128.7578125 C79.48600342 128.27715332 78.89778809 127.79649414 78.29174805 127.30126953 C77 126 77 126 77 124 C76.43152344 123.76023437 75.86304688 123.52046875 75.27734375 123.2734375 C72.53779977 121.74154841 70.73254305 119.88906571 68.5625 117.625 C66.22623537 115.22775619 64.00876696 113.00688832 61.375 110.9375 C59.29868352 109.24366287 57.78415111 107.65424139 56.0625 105.625 C52.62463948 101.58532582 48.90562348 97.90051397 45.125 94.1875 C40.17651805 89.30057439 35.59307804 84.30873941 31.27734375 78.84375 C29.08362881 76.10442842 26.815729 73.45413582 24.51147461 70.80834961 C19.7640195 65.35396773 15.16618406 59.87859537 11.07763672 53.90112305 C9.04559025 50.96916617 9.04559025 50.96916617 6.67871094 48.32177734 C-1.19625542 38.65645886 -1.10508043 30.28465487 -0.5625 18.1875 C-0.51724633 16.41611882 -0.47620108 14.64462492 -0.43945312 12.87304688 C-0.34137073 8.57919173 -0.18672638 4.29087654 0 0 Z " fill="#FDFDFD" transform="translate(241,399)"/>
<path d="M0 0 C1.02802734 -0.00386719 2.05605469 -0.00773438 3.11523438 -0.01171875 C8.7762398 -0.00447498 14.21390602 0.28018223 19.8125 1.125 C19.8125 1.455 19.8125 1.785 19.8125 2.125 C18.6675708 2.13901855 18.6675708 2.13901855 17.49951172 2.15332031 C-3.918435 2.48080203 -25.29776638 3.32716301 -45.1875 12.125 C-45.78578613 12.38732422 -46.38407227 12.64964844 -47.00048828 12.91992188 C-61.66594466 19.5226176 -73.59561522 29.81721715 -81.1875 44.125 C-81.58195312 44.83269531 -81.97640625 45.54039062 -82.3828125 46.26953125 C-94.97550087 69.91580163 -91.74608045 99.03970265 -84.27099609 123.76367188 C-83.64471079 125.74998565 -82.99327654 127.72561403 -82.328125 129.69921875 C-81.39605487 132.49862115 -80.61312052 135.27188029 -79.875 138.125 C-77.88880727 144.79771491 -74.44256411 150.88904189 -71.25048828 157.04589844 C-70.2408818 159.02059039 -69.26773454 161.00820472 -68.30859375 163.0078125 C-60.75816469 178.68443302 -51.75933695 193.49631342 -41.40087891 207.47167969 C-40.15629682 209.16751669 -38.93996887 210.88055361 -37.73046875 212.6015625 C-28.5479451 225.66433188 -18.59860982 238.02515899 -8.1875 250.125 C-7.58550781 250.82882812 -6.98351562 251.53265625 -6.36328125 252.2578125 C2.9229659 263.00557555 12.75557586 273.2351461 22.81396484 283.25683594 C24.57898544 285.0164348 26.33851133 286.78140397 28.09765625 288.546875 C33.34747089 293.79940524 38.60452911 298.96624908 44.26025391 303.78662109 C46.1598989 305.42453456 47.89913793 307.1811758 49.625 309 C54.35299729 313.79263788 59.56295377 317.92249441 64.8125 322.125 C66.66829351 323.64384776 68.52247781 325.16466396 70.375 326.6875 C95.98552213 347.625098 122.59028009 366.85617973 150.8125 384.125 C151.69728027 384.66995117 152.58206055 385.21490234 153.49365234 385.77636719 C174.32690086 398.58222223 195.58424918 411.04422631 218.17578125 420.51171875 C220.71974399 421.64024357 222.97781413 422.74959657 225.35546875 424.14453125 C228.76001751 426.09493376 232.1915273 427.64617971 235.8125 429.125 C236.68583984 429.49399414 237.55917969 429.86298828 238.45898438 430.24316406 C264.29139299 441.15411291 290.38724024 450.12207845 317.8125 456.125 C318.96991699 456.3832959 320.12733398 456.6415918 321.31982422 456.90771484 C337.17926753 460.33303781 352.50557155 461.59214653 368.6875 461.625 C369.94415466 461.63187332 369.94415466 461.63187332 371.22619629 461.6388855 C382.43768877 461.66328708 392.87189128 460.6385092 403.8125 458.125 C404.68036133 457.92648437 405.54822266 457.72796875 406.44238281 457.5234375 C426.46561743 452.60451204 445.45832717 441.41722724 456.5625 423.5625 C463.35786177 411.01598099 466.70763785 398.27866512 467.8125 384.125 C468.1425 384.125 468.4725 384.125 468.8125 384.125 C470.06006538 404.22466447 465.10557806 422.47772533 451.88549805 437.95483398 C434.88420462 456.91539541 410.25409746 465.47493139 385.33837891 467.30691528 C379.35117512 467.5990728 373.3678474 467.60385028 367.375 467.5625 C366.00660477 467.55893494 366.00660477 467.55893494 364.61056519 467.55529785 C349.02171761 467.49205502 334.12785015 466.16580698 318.8125 463.125 C317.17615843 462.83122461 315.53945867 462.53943468 313.90234375 462.25 C300.95616454 459.84827556 288.40645264 455.90980203 275.83544922 452.04638672 C273.04388214 451.19552465 270.24409528 450.37964639 267.44140625 449.56640625 C263.42104583 448.36629262 259.6549433 446.81692173 255.8125 445.125 C253.18204896 444.16299082 250.52739734 443.27441171 247.875 442.375 C239.30565852 439.40710006 231.06013629 435.88366564 222.8125 432.125 C221.71421875 431.63128906 220.6159375 431.13757813 219.484375 430.62890625 C210.81198562 426.68788201 202.29889495 422.44746229 193.8125 418.125 C192.87792969 417.65143066 191.94335938 417.17786133 190.98046875 416.68994141 C176.56943167 409.37111401 162.53213396 401.66963513 148.8125 393.125 C148.00586914 392.62613281 147.19923828 392.12726563 146.36816406 391.61328125 C135.87245582 385.11454586 125.58415775 378.36499087 115.47119141 371.28564453 C114.06098814 370.29887586 112.64620817 369.318653 111.23046875 368.33984375 C108.74621513 366.61737148 106.27725886 364.87528646 103.8125 363.125 C103.15491699 362.65835937 102.49733398 362.19171875 101.81982422 361.7109375 C92.56710861 355.13050827 83.45884089 348.49533904 74.8125 341.125 C74.8125 344.755 74.8125 348.385 74.8125 352.125 C56.9925 352.125 39.1725 352.125 20.8125 352.125 C20.833125 347.94714844 20.85375 343.76929688 20.875 339.46484375 C20.86904293 336.11995142 20.85507357 332.77530457 20.83570862 329.43047333 C20.81749523 325.90673835 20.81318601 322.38427753 20.84326172 318.8605957 C20.87717186 314.81112047 20.84638883 310.76432343 20.8125 306.71484375 C20.8319165 305.46041977 20.85133301 304.20599579 20.87133789 302.91355896 C20.87277292 296.44489528 20.87277292 296.44489528 18.05932617 290.837677 C16.05717292 289.09229859 13.99844633 287.62702839 11.8125 286.125 C10.35668945 284.5643158 10.35668945 284.5643158 9.125 283 C6.83891387 280.15783887 4.40936839 277.68373522 1.8125 275.125 C-4.09285227 269.30509495 -9.81380681 263.44007009 -15.1875 257.125 C-15.76886719 256.47144531 -16.35023438 255.81789063 -16.94921875 255.14453125 C-17.50222656 254.51933594 -18.05523437 253.89414062 -18.625 253.25 C-19.36556641 252.41855469 -19.36556641 252.41855469 -20.12109375 251.5703125 C-21.1875 250.125 -21.1875 250.125 -21.1875 248.125 C-21.8475 248.125 -22.5075 248.125 -23.1875 248.125 C-24.7109375 246.46484375 -24.7109375 246.46484375 -26.5625 244.0625 C-27.27019531 243.15371094 -27.97789062 242.24492187 -28.70703125 241.30859375 C-29.09971191 240.80183105 -29.49239258 240.29506836 -29.89697266 239.77294922 C-31.29229908 237.99117597 -32.71151141 236.23061113 -34.13671875 234.47265625 C-39.76571671 227.52509819 -45.16587901 220.52867197 -50.1875 213.125 C-51.02443578 211.93376595 -51.86312093 210.74375992 -52.703125 209.5546875 C-57.70195132 202.44219816 -62.45131654 195.23617213 -66.875 187.75 C-67.30917236 187.01837646 -67.74334473 186.28675293 -68.19067383 185.53295898 C-71.1875 180.38042442 -71.1875 180.38042442 -71.1875 178.125 C-71.8475 178.125 -72.5075 178.125 -73.1875 178.125 C-78.98956807 165.96127353 -84.74675287 153.79793226 -89.4309082 141.1496582 C-90.15059725 139.22375266 -90.89875494 137.31127736 -91.65234375 135.3984375 C-98.17412042 118.43527457 -100.5457917 101.67261318 -100.625 83.5625 C-100.63126404 82.8900827 -100.63752808 82.21766541 -100.64398193 81.52487183 C-100.71722657 69.11521929 -99.19203583 57.70007307 -93.25 46.6875 C-92.91548828 46.03330078 -92.58097656 45.37910156 -92.23632812 44.70507812 C-82.6824625 26.31526741 -66.73935112 13.18394048 -47.04296875 6.71875 C-31.49784017 1.87495298 -16.27239648 -0.06191146 0 0 Z " fill="#F1F1F1" transform="translate(220.1875,255.875)"/>
<path d="M0 0 C45.546875 0 45.546875 0 59.5625 12.9375 C72.5458264 26.62570051 75.81305818 42.22054054 75.35546875 60.55859375 C74.66259108 74.90391309 69.39111533 87.76418578 59.8125 98.4375 C58 100 58 100 56 100 C56 100.66 56 101.32 56 102 C53.48287811 103.29935464 50.96170913 104.58954372 48.4375 105.875 C47.38079102 106.42220703 47.38079102 106.42220703 46.30273438 106.98046875 C45.60341797 107.33496094 44.90410156 107.68945312 44.18359375 108.0546875 C43.54993896 108.37937012 42.91628418 108.70405273 42.26342773 109.03857422 C28.03537947 115.0821568 17.71832248 112 0 112 C0 75.04 0 38.08 0 0 Z " fill="#020202" transform="translate(733,448)"/>
<path d="M0 0 C3.63846809 1.61230695 6.50879404 3.8525493 9.625 6.3125 C28.58060956 21.08700623 48.50827134 34.46136978 69 47 C69.88478027 47.54495117 70.76956055 48.08990234 71.68115234 48.65136719 C92.51440086 61.45722223 113.77174918 73.91922631 136.36328125 83.38671875 C138.90724399 84.51524357 141.16531413 85.62459657 143.54296875 87.01953125 C146.94751751 88.96993376 150.3790273 90.52117971 154 92 C154.87333984 92.36899414 155.74667969 92.73798828 156.64648438 93.11816406 C182.47889299 104.02911291 208.57474024 112.99707845 236 119 C237.15741699 119.2582959 238.31483398 119.5165918 239.50732422 119.78271484 C255.36676753 123.20803781 270.69307155 124.46714653 286.875 124.5 C288.13165466 124.50687332 288.13165466 124.50687332 289.41369629 124.5138855 C300.62518877 124.53828708 311.05939128 123.5135092 322 121 C323.30179199 120.70222656 323.30179199 120.70222656 324.62988281 120.3984375 C344.65311743 115.47951204 363.64582717 104.29222724 374.75 86.4375 C381.54536177 73.89098099 384.89513785 61.15366512 386 47 C386.33 47 386.66 47 387 47 C388.24756538 67.09966447 383.29307806 85.35272533 370.07299805 100.82983398 C353.07170462 119.79039541 328.44159746 128.34993139 303.52587891 130.18191528 C297.53867512 130.4740728 291.5553474 130.47885028 285.5625 130.4375 C284.19410477 130.43393494 284.19410477 130.43393494 282.79806519 130.43029785 C267.20921761 130.36705502 252.31535015 129.04080698 237 126 C235.36365843 125.70622461 233.72695867 125.41443468 232.08984375 125.125 C219.14366454 122.72327556 206.59395264 118.78480203 194.02294922 114.92138672 C191.23138214 114.07052465 188.43159528 113.25464639 185.62890625 112.44140625 C181.60854583 111.24129262 177.8424433 109.69192173 174 108 C171.36954896 107.03799082 168.71489734 106.14941171 166.0625 105.25 C157.49315852 102.28210006 149.24763629 98.75866564 141 95 C139.90171875 94.50628906 138.8034375 94.01257813 137.671875 93.50390625 C128.99948562 89.56288201 120.48639495 85.32246229 112 81 C111.06542969 80.52643066 110.13085938 80.05286133 109.16796875 79.56494141 C94.75693167 72.24611401 80.71963396 64.54463513 67 56 C66.19336914 55.50113281 65.38673828 55.00226562 64.55566406 54.48828125 C54.05995582 47.98954586 43.77165775 41.23999087 33.65869141 34.16064453 C32.24848814 33.17387586 30.83370817 32.193653 29.41796875 31.21484375 C23.84123531 27.34818189 18.32709589 23.39205305 12.8125 19.4375 C12.05146973 18.89496582 11.29043945 18.35243164 10.50634766 17.79345703 C5.79514699 14.40275007 1.35623547 10.83694912 -3 7 C-1.68 5.68 -0.36 4.36 1 3 C0.67 2.01 0.34 1.02 0 0 Z " fill="#EEEEEE" transform="translate(302,593)"/>
<path d="M0 0 C3.65464986 1.53392788 5.94394 3.7262778 8.703125 6.54296875 C9.60160156 7.45240234 10.50007812 8.36183594 11.42578125 9.29882812 C12.36756931 10.26134531 13.30897355 11.22423819 14.25 12.1875 C19.80297258 17.84590877 25.33124824 23.42658229 31.35986328 28.58032227 C33.28703298 30.24845144 35.0585911 32.02661826 36.8125 33.875 C41.54038365 38.66752268 46.74985327 42.79845594 52 47 C54.85155742 49.32447433 57.69753823 51.65546124 60.5390625 53.9921875 C62.02078921 55.20108834 63.51269057 56.39787955 65.0234375 57.5703125 C66.40094802 58.65033249 67.71111585 59.81561997 69 61 C69 61.99 69 62.98 69 64 C69.66 64.33 70.32 64.66 71 65 C70.34 65.99 69.68 66.98 69 68 C64.25 67.125 64.25 67.125 62 66 C62 69.63 62 73.26 62 77 C44.18 77 26.36 77 8 77 C7.93941406 72.78734375 7.87882813 68.5746875 7.81640625 64.234375 C7.76542943 60.87297696 7.71351167 57.51159638 7.66095734 54.15022278 C7.6057597 50.60327139 7.55221571 47.05631278 7.50268555 43.50927734 C7.44576415 39.43838687 7.38128443 35.3676465 7.31640625 31.296875 C7.29969376 30.02696716 7.28298126 28.75705933 7.26576233 27.44866943 C7.24581711 26.26774719 7.22587189 25.08682495 7.20532227 23.87011719 C7.18977798 22.83087097 7.1742337 21.79162476 7.15821838 20.72088623 C7.0185685 18.31932305 6.63871984 16.30504902 6 14 C6 13.34 6 12.68 6 12 C5.34 12 4.68 12 4 12 C3.34 11.01 2.68 10.02 2 9 C1.34 9 0.68 9 0 9 C-1.125 6.75 -1.125 6.75 -2 4 C-1.125 1.6875 -1.125 1.6875 0 0 Z " fill="#FBFBFB" transform="translate(233,531)"/>
<path d="M0 0 C0.66 0 1.32 0 2 0 C2.27972656 0.69222656 2.55945313 1.38445312 2.84765625 2.09765625 C5.45527738 8.46159335 8.24529377 14.7044508 11.19262695 20.91796875 C14.0637287 27.02728912 16.67216735 33.23978037 19.24731445 39.47875977 C20.65044586 42.86455348 22.08039369 46.15915779 23.734375 49.43359375 C25 52 25 52 25 54 C9.49 54 -6.02 54 -22 54 C-20.50047342 49.50142026 -18.8935711 45.32659838 -17 41 C-15.13961219 36.59505387 -13.28909905 32.18597384 -11.43920898 27.77661133 C-10.56898592 25.70295531 -9.69759014 23.62979461 -8.82617188 21.55664062 C-5.81990577 14.39636667 -2.84575096 7.22598604 0 0 Z " fill="#070707" transform="translate(560,482)"/>
<path d="M0 0 C0.33 0 0.66 0 1 0 C2.24756538 20.09966447 -2.70692194 38.35272533 -15.92700195 53.82983398 C-32.92829538 72.79039541 -57.55840254 81.34993139 -82.47412109 83.18191528 C-88.46132488 83.4740728 -94.4446526 83.47885028 -100.4375 83.4375 C-101.80589523 83.43393494 -101.80589523 83.43393494 -103.20193481 83.43029785 C-118.78619404 83.36707364 -133.69144215 82.0590235 -149 79 C-150.70684388 78.68388246 -152.41386673 78.36872926 -154.12109375 78.0546875 C-165.94778205 75.79152631 -177.47365095 72.45392474 -189 69 C-188.505 68.360625 -188.01 67.72125 -187.5 67.0625 C-185.90197138 65.29025661 -185.90197138 65.29025661 -186 64 C-180.09629152 64.54584166 -174.59636088 65.80286117 -168.87011719 67.32397461 C-145.62697384 73.48220615 -123.17022704 77.45118202 -99.125 77.5 C-97.86834534 77.50687332 -97.86834534 77.50687332 -96.58630371 77.5138855 C-85.37481123 77.53828708 -74.94060872 76.5135092 -64 74 C-62.69820801 73.70222656 -62.69820801 73.70222656 -61.37011719 73.3984375 C-41.34688257 68.47951204 -22.35417283 57.29222724 -11.25 39.4375 C-4.45463823 26.89098099 -1.10486215 14.15366512 0 0 Z " fill="#ECECEC" transform="translate(688,640)"/>
<path d="M0 0 C1.02802734 -0.00386719 2.05605469 -0.00773438 3.11523438 -0.01171875 C8.7762398 -0.00447498 14.21390602 0.28018223 19.8125 1.125 C19.8125 1.455 19.8125 1.785 19.8125 2.125 C18.6675708 2.13901855 18.6675708 2.13901855 17.49951172 2.15332031 C-13.94292609 2.63407712 -46.93350577 5.48799881 -70.1875 29.125 C-70.8475 28.795 -71.5075 28.465 -72.1875 28.125 C-72.1875 27.465 -72.1875 26.805 -72.1875 26.125 C-76.6425 27.61 -76.6425 27.61 -81.1875 29.125 C-67.66250525 11.78909512 -44.28829848 4.05080491 -23.1875 1.125 C-15.44872415 0.22693302 -7.78597967 -0.02962326 0 0 Z " fill="#E8E8E8" transform="translate(220.1875,255.875)"/>
<path d="M0 0 C6.05726226 1.679745 11.32996468 4.69042203 16.8125 7.6875 C17.86058838 8.25839355 18.90867676 8.82928711 19.98852539 9.41748047 C37.77440268 19.19145124 55.09031086 29.78208922 72 41 C72.85537354 41.56605957 72.85537354 41.56605957 73.72802734 42.14355469 C77.16022585 44.41686839 80.58157129 46.70605442 84 49 C85.74961537 50.1672434 87.49958195 51.33396065 89.25 52.5 C90.5 53.33333333 91.75 54.16666667 93 55 C92.505 55.99 92.505 55.99 92 57 C90.99324219 56.34515625 89.98648438 55.6903125 88.94921875 55.015625 C67.41454207 41.02923899 45.93495843 27.08770326 22.79296875 15.87451172 C20.03462134 14.52914129 17.30046561 13.13626794 14.5625 11.75 C10.3355342 9.61341893 6.07426916 7.73080455 1.64453125 6.0546875 C0 5 0 5 -0.80078125 2.9453125 C-0.86652344 2.30335938 -0.93226563 1.66140625 -1 1 C-0.67 0.67 -0.34 0.34 0 0 Z " fill="#E1E1E1" transform="translate(388,317)"/>
<path d="M0 0 C0.33 0 0.66 0 1 0 C2.24783568 20.10401924 -2.6855278 38.47818969 -16.03149414 53.88208008 C-20.85366686 59.21669762 -26.10809586 63.86839314 -32 68 C-32.5625 66.0625 -32.5625 66.0625 -33 64 C-32.505 63.505 -32.505 63.505 -32 63 C-32.66 62.67 -33.32 62.34 -34 62 C-33.46632813 61.61070312 -32.93265625 61.22140625 -32.3828125 60.8203125 C-15.65989909 48.26366126 -4.48258872 32.2432465 -1.18359375 11.35546875 C-0.67019817 7.57825622 -0.29663629 3.80001317 0 0 Z " fill="#E4E4E4" transform="translate(688,640)"/>
<path d="M0 0 C3.58417307 1.39273973 7.05389464 2.93650804 10.51953125 4.6015625 C12.0519043 5.33632813 12.0519043 5.33632813 13.61523438 6.0859375 C14.67033203 6.59382813 15.72542969 7.10171875 16.8125 7.625 C17.88693359 8.140625 18.96136719 8.65625 20.06835938 9.1875 C22.71293417 10.4568959 25.35678484 11.72777605 28 13 C28 14.65 28 16.3 28 18 C21.99948707 16.13098778 16.42217776 13.86423249 10.73046875 11.20703125 C6.89560699 9.51179193 3.00124849 8.24629051 -1 7 C-0.34 6.67 0.32 6.34 1 6 C0.67 4.02 0.34 2.04 0 0 Z " fill="#EBEBEB" transform="translate(360,303)"/>
<path d="M0 0 C1.02802734 -0.00386719 2.05605469 -0.00773438 3.11523438 -0.01171875 C8.7762398 -0.00447498 14.21390602 0.28018223 19.8125 1.125 C19.8125 1.455 19.8125 1.785 19.8125 2.125 C18.6675708 2.13901855 18.6675708 2.13901855 17.49951172 2.15332031 C-0.50823691 2.4286599 -17.67043723 3.67747164 -35.1875 8.125 C-34.8575 7.135 -34.5275 6.145 -34.1875 5.125 C-36.8275 5.455 -39.4675 5.785 -42.1875 6.125 C-38.75252694 3.83501796 -35.66474258 3.26633787 -31.6875 2.5625 C-31.03007812 2.43681641 -30.37265625 2.31113281 -29.6953125 2.18164062 C-19.8366013 0.37798752 -10.00459786 -0.03806442 0 0 Z " fill="#C2C2C2" transform="translate(220.1875,255.875)"/>
<path d="M0 0 C3.03852705 1.40976705 5.5939595 3.08870228 8.25 5.125 C8.95640625 5.66382813 9.6628125 6.20265625 10.390625 6.7578125 C10.92171875 7.16773438 11.4528125 7.57765625 12 8 C11.01 8.495 11.01 8.495 10 9 C9.59270772 11.32156597 9.25561323 13.6568787 9 16 C4.72545575 13.2520787 0.85873847 10.30749011 -3 7 C-1.68 5.68 -0.36 4.36 1 3 C0.67 2.01 0.34 1.02 0 0 Z " fill="#E8E8E8" transform="translate(302,593)"/>
<path d="M0 0 C4.84079403 1.648333 8.82725256 4.32907493 13.0625 7.125 C14.18978516 7.86206177 14.18978516 7.86206177 15.33984375 8.61401367 C17.56358497 10.07049776 19.78277751 11.53361548 22 13 C22.59925293 13.39622559 23.19850586 13.79245117 23.81591797 14.20068359 C27.21886342 16.45487044 30.61059298 18.7255295 34 21 C35.74961537 22.1672434 37.49958195 23.33396065 39.25 24.5 C40.5 25.33333333 41.75 26.16666667 43 27 C42.67 27.66 42.34 28.32 42 29 C40.99324219 28.34515625 39.98648438 27.6903125 38.94921875 27.015625 C30.95143173 21.82196947 22.93232295 16.66337894 14.875 11.5625 C14.09471436 11.06717773 13.31442871 10.57185547 12.51049805 10.06152344 C8.06768258 7.25553472 3.58293257 4.57106164 -1 2 C-0.67 1.34 -0.34 0.68 0 0 Z " fill="#B1B1B1" transform="translate(438,345)"/>
<path d="M0 0 C0.66 0.33 1.32 0.66 2 1 C1.505 1.45375 1.01 1.9075 0.5 2.375 C-1.22609337 3.87635519 -1.22609337 3.87635519 -1 6 C-0.01 6.33 0.98 6.66 2 7 C-0.57784846 9.64752004 -2.91648098 11.94432065 -6 14 C-6.33 13.01 -6.66 12.02 -7 11 C-11.455 12.485 -11.455 12.485 -16 14 C-11.65208747 8.00287927 -6.05706051 4.17947783 0 0 Z " fill="#EAEAEA" transform="translate(155,271)"/>
<path d="M0 0 C5.81897122 2.18530767 10.97322186 5.35040662 16.3125 8.5 C17.33923828 9.09425781 18.36597656 9.68851562 19.42382812 10.30078125 C20.87885742 11.15736328 20.87885742 11.15736328 22.36328125 12.03125 C23.25313721 12.55267578 24.14299316 13.07410156 25.05981445 13.61132812 C25.70007568 14.06958984 26.34033691 14.52785156 27 15 C27 15.66 27 16.32 27 17 C23.1692256 16.4117025 20.35909823 15.29009564 17 13.375 C16.05511719 12.84390625 15.11023438 12.3128125 14.13671875 11.765625 C13.10160156 11.18296875 12.06648438 10.6003125 11 10 C8.60969657 8.69799153 6.21148585 7.41092503 3.8125 6.125 C2.70519531 5.52945312 1.59789062 4.93390625 0.45703125 4.3203125 C-0.35378906 3.88460938 -1.16460937 3.44890625 -2 3 C-1.34 2.67 -0.68 2.34 0 2 C0 1.34 0 0.68 0 0 Z " fill="#DBDBDB" transform="translate(411,329)"/>
<path d="M0 0 C0.33 0 0.66 0 1 0 C1.77847659 12.54212281 -0.35955389 23.0385342 -4 35 C-4.99 34.01 -5.98 33.02 -7 32 C-6.54287762 30.45797384 -6.08423653 28.91639786 -5.625 27.375 C-5.24214844 26.08722656 -5.24214844 26.08722656 -4.8515625 24.7734375 C-4.27482715 22.89507924 -3.64517783 21.03230319 -2.96875 19.1875 C-1.80075729 15.3444272 -1.31418953 11.60650507 -0.875 7.625 C-0.78863281 6.88894531 -0.70226562 6.15289063 -0.61328125 5.39453125 C-0.40318115 3.59700818 -0.20079233 1.79858658 0 0 Z " fill="#A1A1A1" transform="translate(688,640)"/>
<path d="M0 0 C1.32 0.66 2.64 1.32 4 2 C3.67 2.66 3.34 3.32 3 4 C2.34 4 1.68 4 1 4 C1.33 4.99 1.66 5.98 2 7 C2.66 7.33 3.32 7.66 4 8 C4.66 8.33 5.32 8.66 6 9 C6.33 9.99 6.66 10.98 7 12 C6.01 12.495 6.01 12.495 5 13 C1.37 10.36 -2.26 7.72 -6 5 C-3 3 -3 3 -1 3 C-0.67 2.01 -0.34 1.02 0 0 Z " fill="#E7E7E7" transform="translate(326,611)"/>
<path d="M0 0 C2.93788301 1.43478007 5.21136643 3.19009979 7.6875 5.3125 C6.3675 6.6325 5.0475 7.9525 3.6875 9.3125 C2.6975 8.9825 1.7075 8.6525 0.6875 8.3125 C0.3575 7.3225 0.0275 6.3325 -0.3125 5.3125 C-2.31266466 4.10367904 -2.31266466 4.10367904 -4.3125 3.3125 C-4.3125 2.3225 -4.3125 1.3325 -4.3125 0.3125 C-2.3125 -0.6875 -2.3125 -0.6875 0 0 Z " fill="#F6F6F6" transform="translate(331.3125,614.6875)"/>
<path d="M0 0 C1.65 0.33 3.3 0.66 5 1 C5.33 2.32 5.66 3.64 6 5 C4.25 6.5625 4.25 6.5625 2 8 C-0.25 7.6875 -0.25 7.6875 -2 7 C-2.33 5.68 -2.66 4.36 -3 3 C-2.01 2.67 -1.02 2.34 0 2 C0 1.34 0 0.68 0 0 Z " fill="#F7F7F7" transform="translate(180,473)"/>
<path d="M0 0 C1.65 0.33 3.3 0.66 5 1 C5.66 2.98 6.32 4.96 7 7 C5.5199159 6.88637738 4.04089926 6.75877092 2.5625 6.625 C1.73878906 6.55539062 0.91507812 6.48578125 0.06640625 6.4140625 C-0.61550781 6.27742187 -1.29742187 6.14078125 -2 6 C-2.33 5.34 -2.66 4.68 -3 4 C-2.01 2.68 -1.02 1.36 0 0 Z " fill="#F7F7F7" transform="translate(381,648)"/>
<path d="M0 0 C0.33 1.32 0.66 2.64 1 4 C0.113125 4.721875 -0.77375 5.44375 -1.6875 6.1875 C-4.62918752 8.63890627 -7.32541339 11.25683424 -10 14 C-11.66666667 15.66666667 -13.33333333 17.33333333 -15 19 C-15.66 18.67 -16.32 18.34 -17 18 C-15.91332031 16.93072266 -15.91332031 16.93072266 -14.8046875 15.83984375 C-9.63826191 10.73055506 -4.6201281 5.61907471 0 0 Z " fill="#282828" transform="translate(373,532)"/>
<path d="M0 0 C5.22043414 2.83719247 10.0306513 6.05561126 14.86328125 9.51171875 C16.91763418 11.01891645 16.91763418 11.01891645 19 12 C19 12.66 19 13.32 19 14 C14.3562267 13.71855919 12.12674899 11.62302765 8.84765625 8.625 C7.00116601 7.0010255 5.09554591 5.63000692 3.0625 4.25 C2.051875 3.5075 1.04125 2.765 0 2 C0 1.34 0 0.68 0 0 Z " fill="#272727" transform="translate(481,373)"/>
<path d="M0 0 C2.9719385 1.12451727 5.33440687 2.22293791 8 4 C7.67 5.65 7.34 7.3 7 9 C3.62537285 8.45276317 1.91765 7.9451 -1 6 C-0.34 6 0.32 6 1 6 C0.67 4.02 0.34 2.04 0 0 Z " fill="#E1E1E1" transform="translate(360,303)"/>
<path d="M0 0 C0.66 1.32 1.32 2.64 2 4 C1.154375 4.66 0.30875 5.32 -0.5625 6 C-3.8927915 8.74768731 -6.56812168 11.88997098 -9.2890625 15.23046875 C-11.0760678 17.07867287 -12.6498903 17.99940744 -15 19 C-14.175 18.05125 -13.35 17.1025 -12.5 16.125 C-5.58152069 8.51881218 -5.58152069 8.51881218 0 0 Z " fill="#303030" transform="translate(842,565)"/>
<path d="M0 0 C3.48670834 1.1094072 6.77484237 2.26337666 10 4 C10 4.99 10 5.98 10 7 C6.06380262 6.43768609 3.20807554 5.38314183 0 3 C0 2.01 0 1.02 0 0 Z " fill="#ECECEC" transform="translate(401,324)"/>
<path d="M0 0 C0.33 0 0.66 0 1 0 C0.25 6.75 0.25 6.75 -2 9 C-3.65261839 10.02304948 -5.31791365 11.02616054 -7 12 C-5.48109469 7.44328408 -3.04597738 3.68276708 0 0 Z " fill="#DEDEDE" transform="translate(682,671)"/>
<path d="M0 0 C0 3 0 3 -1 6 C-2.55859375 7.53515625 -2.55859375 7.53515625 -4.4375 9.0625 C-6.38553905 10.66078674 -8.21573944 12.21573944 -10 14 C-10 9.88181592 -8.33436007 8.84145243 -5.5625 5.875 C-4.73878906 4.98554688 -3.91507812 4.09609375 -3.06640625 3.1796875 C-1 1 -1 1 0 0 Z " fill="#D7D7D7" transform="translate(377,451)"/>
<path d="M0 0 C4.75 0.75 4.75 0.75 7 3 C7 4.32 7 5.64 7 7 C6.236875 6.690625 5.47375 6.38125 4.6875 6.0625 C2.81210323 5.32106407 0.91315348 4.63771783 -1 4 C-0.67 2.68 -0.34 1.36 0 0 Z " fill="#D9D9D9" transform="translate(395,321)"/>
<path d="M0 0 C0.99 0.33 1.98 0.66 3 1 C3.33 1.99 3.66 2.98 4 4 C2.75 5.5625 2.75 5.5625 1 7 C-1.125 6.875 -1.125 6.875 -3 6 C-3.33 5.01 -3.66 4.02 -4 3 C-2.1875 1.4375 -2.1875 1.4375 0 0 Z " fill="#F8F8F8" transform="translate(157,271)"/>
<path d="M0 0 C2 1 4 2 6 3 C4.875 4.5625 4.875 4.5625 3 6 C-0.1875 5.6875 -0.1875 5.6875 -3 5 C-1.125 1.125 -1.125 1.125 0 0 Z " fill="#F7F7F7" transform="translate(320,609)"/>
<path d="M0 0 C0.66 0.33 1.32 0.66 2 1 C1.0919838 2.13199353 0.17316174 3.25532363 -0.75 4.375 C-1.26046875 5.00148438 -1.7709375 5.62796875 -2.296875 6.2734375 C-4.09382599 8.09511717 -5.69279102 8.94095325 -8 10 C-9.70921589 11.5412312 -9.70921589 11.5412312 -11 13 C-11.66 12.67 -12.32 12.34 -13 12 C-8.84792208 7.7373638 -4.63678779 3.73204871 0 0 Z " fill="#303030" transform="translate(160,275)"/>
<path d="M0 0 C0 3.1819944 -0.41086442 4.32356113 -2 7 C-3 8 -4 9 -5 10 C-5 10.66 -5 11.32 -5 12 C-6.32 12.33 -7.64 12.66 -9 13 C-7.47987323 7.59510481 -3.72614782 4.01507372 0 0 Z " fill="#262626" transform="translate(209,307)"/>
<path d="M0 0 C2 3 2 3 1.75 6.5 C1 10 1 10 -1 13 C-2.5029278 10.46875317 -3.2006987 8.79254012 -2.46484375 5.88671875 C-1.7028501 3.89135862 -0.89496636 1.93909378 0 0 Z " fill="#B8B8B8" transform="translate(684,662)"/>
<path d="M0 0 C0.33 0.66 0.66 1.32 1 2 C-6.29840547 10.44646925 -6.29840547 10.44646925 -10 14 C-10.66 13.67 -11.32 13.34 -12 13 C-11.27683594 12.29423828 -11.27683594 12.29423828 -10.5390625 11.57421875 C-9.90742188 10.95160156 -9.27578125 10.32898438 -8.625 9.6875 C-7.99851562 9.07261719 -7.37203125 8.45773437 -6.7265625 7.82421875 C-4.81913393 5.91187472 -4.81913393 5.91187472 -3 3 C-2.34 3 -1.68 3 -1 3 C-0.67 2.01 -0.34 1.02 0 0 Z " fill="#C6C6C6" transform="translate(404,421)"/>
<path d="M0 0 C2.91517292 1.07401108 4.77810176 1.77810176 7 4 C6.67 4.99 6.34 5.98 6 7 C3.36 5.68 0.72 4.36 -2 3 C-1.34 2.67 -0.68 2.34 0 2 C0 1.34 0 0.68 0 0 Z " fill="#D1D1D1" transform="translate(411,329)"/>
<path d="M0 0 C2.31 1.98 4.62 3.96 7 6 C6.67 7.32 6.34 8.64 6 10 C3.03595495 7.19195732 0.55500981 4.81684226 -1 1 C-0.67 0.67 -0.34 0.34 0 0 Z " fill="#ECECEC" transform="translate(201,472)"/>
<path d="M0 0 C0 0.66 0 1.32 0 2 C0.66 2.33 1.32 2.66 2 3 C1.67 3.99 1.34 4.98 1 6 C0.01 6.33 -0.98 6.66 -2 7 C-3.32 5.35 -4.64 3.7 -6 2 C-3 0 -3 0 0 0 Z " fill="#E6E6E6" transform="translate(163,268)"/>
<path d="M0 0 C0.66 0.33 1.32 0.66 2 1 C0.60667426 4.36720387 -0.9789286 5.9859524 -4 8 C-4 4 -4 4 -2 1.75 C-1.01 0.88375 -1.01 0.88375 0 0 Z " fill="#0F0F0F" transform="translate(353,473)"/>
<path d="M0 0 C0.66 0.33 1.32 0.66 2 1 C1.8125 3.875 1.8125 3.875 1 7 C-1.5625 8.375 -1.5625 8.375 -4 9 C-2.94124926 5.59687262 -1.99097846 2.98646769 0 0 Z " fill="#222222" transform="translate(683,675)"/>
<path d="M0 0 C0 3 0 3 -1.25 4.5625 C-3.12201546 6.10022698 -4.72905027 7.14839385 -7 8 C-7.99 7.67 -8.98 7.34 -10 7 C-6.7 4.69 -3.4 2.38 0 0 Z " fill="#D5D5D5" transform="translate(658,662)"/>
<path d="M0 0 C0.78375 0.04125 1.5675 0.0825 2.375 0.125 C2.375 1.115 2.375 2.105 2.375 3.125 C1.385 3.62 1.385 3.62 0.375 4.125 C0.045 4.785 -0.285 5.445 -0.625 6.125 C-1.945 4.805 -3.265 3.485 -4.625 2.125 C-2.625 0.125 -2.625 0.125 0 0 Z " fill="#151515" transform="translate(348.625,560.875)"/>
<path d="M0 0 C0 0.66 0 1.32 0 2 C0.66 2 1.32 2 2 2 C2.33 2.99 2.66 3.98 3 5 C-0.77545388 3.90931332 -3.47043472 3.0916909 -6 0 C-3.50907189 -1.24546405 -2.58919267 -0.7767578 0 0 Z " fill="#272727" transform="translate(397,652)"/>
<path d="M0 0 C2 3 2 3 1.625 5.6875 C1.41875 6.450625 1.2125 7.21375 1 8 C0.34 8 -0.32 8 -1 8 C-1.66 8.66 -2.32 9.32 -3 10 C-2.49287967 6.28111761 -1.88391785 3.26545761 0 0 Z " fill="#282828" transform="translate(137,302)"/>
<path d="M0 0 C2.46800047 1.15173355 4.04783565 2.04783565 6 4 C5.01 5.485 5.01 5.485 4 7 C2.35 5.02 0.7 3.04 -1 1 C-0.67 0.67 -0.34 0.34 0 0 Z " fill="#1F1F1F" transform="translate(268,561)"/>
<path d="M0 0 C0.66 0.33 1.32 0.66 2 1 C2 1.66 2 2.32 2 3 C0.36739286 4.37482707 -1.30225062 5.70647667 -3 7 C-3.66 7.66 -4.32 8.32 -5 9 C-5.66 8.34 -6.32 7.68 -7 7 C-5.71034824 5.62437146 -4.37310707 4.29233607 -3 3 C-2.34 3 -1.68 3 -1 3 C-0.67 2.01 -0.34 1.02 0 0 Z " fill="#D0D0D0" transform="translate(796,541)"/>
<path d="M0 0 C0.99 0.99 1.98 1.98 3 3 C2.67 3.66 2.34 4.32 2 5 C2.66 5.33 3.32 5.66 4 6 C3.67 6.99 3.34 7.98 3 9 C1.35 6.69 -0.3 4.38 -2 2 C-1.34 1.34 -0.68 0.68 0 0 Z " fill="#EAEAEA" transform="translate(236,511)"/>
<path d="M0 0 C0 0.66 0 1.32 0 2 C-0.99 2.33 -1.98 2.66 -3 3 C-3.7115625 3.99 -3.7115625 3.99 -4.4375 5 C-6.26671248 7.34139198 -7.17963072 7.44403398 -10 8 C-9.04578192 6.85073734 -8.08647955 5.70569459 -7.125 4.5625 C-6.59132813 3.92441406 -6.05765625 3.28632813 -5.5078125 2.62890625 C-3.68057607 0.65492285 -2.70796331 0 0 0 Z " fill="#E9E9E9" transform="translate(396,434)"/>
<path d="M0 0 C0 3.69418201 -1.28179295 5.77836178 -3 9 C-4.32 8.67 -5.64 8.34 -7 8 C-4.69 5.36 -2.38 2.72 0 0 Z " fill="#DBDBDB" transform="translate(417,407)"/>
<path d="M0 0 C3.40755272 1.92880342 6.74147635 3.8276509 10 6 C10 6.66 10 7.32 10 8 C6.01328937 6.63312778 3.11505367 4.84804907 0 2 C0 1.34 0 0.68 0 0 Z " fill="#535353" transform="translate(481,373)"/>
<path d="M0 0 C-0.99 0.495 -0.99 0.495 -2 1 C-1.67 1.66 -1.34 2.32 -1 3 C-2.32 3.33 -3.64 3.66 -5 4 C-4.67 3.01 -4.34 2.02 -4 1 C-6.64 1.33 -9.28 1.66 -12 2 C-7.89783794 -0.73477471 -4.73617773 -1.57872591 0 0 Z " fill="#B8B8B8" transform="translate(190,260)"/>
<path d="M0 0 C1.65 0.33 3.3 0.66 5 1 C4.34 2.32 3.68 3.64 3 5 C0.525 4.01 0.525 4.01 -2 3 C-1.34 2.67 -0.68 2.34 0 2 C0 1.34 0 0.68 0 0 Z " fill="#141414" transform="translate(442,625)"/>
<path d="M0 0 C0.99 0.33 1.98 0.66 3 1 C1.35 2.98 -0.3 4.96 -2 7 C-2.66 6.67 -3.32 6.34 -4 6 C-3.0022242 3.00667261 -2.2477975 2.05233685 0 0 Z " fill="#DFDFDF" transform="translate(365,537)"/>
<path d="M0 0 C0.33 0.66 0.66 1.32 1 2 C1.99 2.33 2.98 2.66 4 3 C2.68 4.32 1.36 5.64 0 7 C-0.66 6.67 -1.32 6.34 -2 6 C-1.34 4.02 -0.68 2.04 0 0 Z " fill="#EAEAEA" transform="translate(153,275)"/>
<path d="M0 0 C0.66 0 1.32 0 2 0 C2 0.66 2 1.32 2 2 C3.32 2.33 4.64 2.66 6 3 C6 3.66 6 4.32 6 5 C5.01 5.33 4.02 5.66 3 6 C1.68 4.35 0.36 2.7 -1 1 C-0.67 0.67 -0.34 0.34 0 0 Z " fill="#E8E8E8" transform="translate(337,538)"/>
<path d="M0 0 C0.66 0 1.32 0 2 0 C2.66 1.98 3.32 3.96 4 6 C2.35 6 0.7 6 -1 6 C-0.67 4.02 -0.34 2.04 0 0 Z " fill="#313131" transform="translate(560,482)"/>
<path d="M0 0 C5.875 4.625 5.875 4.625 7 8 C6.34 8 5.68 8 5 8 C4.34 7.34 3.68 6.68 3 6 C2.01 5.67 1.02 5.34 0 5 C0 3.35 0 1.7 0 0 Z " fill="#CACACA" transform="translate(330,476)"/>
<path d="M0 0 C0.66 0 1.32 0 2 0 C2 0.66 2 1.32 2 2 C2.66 2.33 3.32 2.66 4 3 C-0.455 4.485 -0.455 4.485 -5 6 C-3.38405168 3.95880212 -1.7143618 1.95927063 0 0 Z " fill="#D2D2D2" transform="translate(144,279)"/>
<path d="M0 0 C-0.99 1.485 -0.99 1.485 -2 3 C-5.3 2.34 -8.6 1.68 -12 1 C-12 0.67 -12 0.34 -12 0 C-3.42857143 -1.28571429 -3.42857143 -1.28571429 0 0 Z " fill="#2A2A2A" transform="translate(620,722)"/>
<path d="M0 0 C2.31 0.33 4.62 0.66 7 1 C6.67 2.32 6.34 3.64 6 5 C3.98079663 3.69593116 1.98075027 2.36176581 0 1 C0 0.67 0 0.34 0 0 Z " fill="#232323" transform="translate(336,617)"/>
<path d="M0 0 C1.98 0.99 3.96 1.98 6 3 C4.68 3.99 3.36 4.98 2 6 C1.01 4.68 0.02 3.36 -1 2 C-0.67 1.34 -0.34 0.68 0 0 Z " fill="#161616" transform="translate(418,600)"/>
<path d="M0 0 C0.66 0.99 1.32 1.98 2 3 C0.71034824 4.37562854 -0.62689293 5.70766393 -2 7 C-2.66 7 -3.32 7 -4 7 C-3.34 5.35 -2.68 3.7 -2 2 C-1.34 2 -0.68 2 0 2 C0 1.34 0 0.68 0 0 Z " fill="#EFEFEF" transform="translate(356,546)"/>
<path d="M0 0 C-1.36983503 3.16115776 -1.9890638 3.9927092 -5 6 C-5 4.68 -5 3.36 -5 2 C-2 0 -2 0 0 0 Z " fill="#1D1D1D" transform="translate(392,434)"/>
<path d="M0 0 C2.5 1.3125 2.5 1.3125 5 3 C5 3.99 5 4.98 5 6 C2 6 2 6 0 5 C0 3.35 0 1.7 0 0 Z " fill="#0B0B0B" transform="translate(473,369)"/>
<path d="M0 0 C4.75 0.875 4.75 0.875 7 2 C6.67 2.99 6.34 3.98 6 5 C3.98079663 3.69593116 1.98075027 2.36176581 0 1 C0 0.67 0 0.34 0 0 Z " fill="#1A1A1A" transform="translate(304,593)"/>
<path d="M0 0 C2.31 0 4.62 0 7 0 C7 1.65 7 3.3 7 5 C3.535 3.02 3.535 3.02 0 1 C0 0.67 0 0.34 0 0 Z " fill="#D1D1D1" transform="translate(408,593)"/>
<path d="M0 0 C1.32 0.33 2.64 0.66 4 1 C3.67 1.99 3.34 2.98 3 4 C2.01 4.33 1.02 4.66 0 5 C-0.66 4.34 -1.32 3.68 -2 3 C-1.34 2.01 -0.68 1.02 0 0 Z " fill="#F5F5F5" transform="translate(164,268)"/>
<path d="M0 0 C-0.33 0.99 -0.66 1.98 -1 3 C-3.0625 3.6875 -3.0625 3.6875 -5 4 C-5.66 3.01 -6.32 2.02 -7 1 C-4 0 -4 0 0 0 Z " fill="#F7F7F7" transform="translate(186,261)"/>
</svg>
